<svg width="13" height="13" viewBox="0 0 13 13" fill="none" xmlns="http://www.w3.org/2000/svg">
<path d="M2.4375 2.03125C2.4375 0.909421 3.34692 0 4.46875 0C5.59058 0 6.5 0.909422 6.5 2.03125C6.5 0.909422 7.40942 0 8.53125 0C9.65308 0 10.5625 0.909421 10.5625 2.03125L10.5625 2.03577C10.5625 2.09254 10.5626 2.25523 10.5318 2.4375H12.1875C12.6362 2.4375 13 2.80127 13 3.25V4.0625C13 4.51123 12.6362 4.875 12.1875 4.875H0.8125C0.36377 4.875 0 4.51123 0 4.0625V3.25C0 2.80127 0.363769 2.4375 0.8125 2.4375H2.46823C2.43739 2.25523 2.43747 2.09254 2.4375 2.03577L2.4375 2.03125ZM3.30524 2.4375H5.6875V2.03125C5.6875 1.35815 5.14185 0.8125 4.46875 0.8125C3.79565 0.8125 3.25 1.35815 3.25 2.03125C3.25 2.10011 3.25158 2.25347 3.28647 2.38139C3.29267 2.40414 3.29911 2.42276 3.30524 2.4375ZM7.3125 2.4375H9.69476C9.70089 2.42276 9.70733 2.40414 9.71353 2.38139C9.74842 2.25347 9.75 2.10011 9.75 2.03125C9.75 1.35815 9.20435 0.8125 8.53125 0.8125C7.85815 0.8125 7.3125 1.35815 7.3125 2.03125V2.4375Z" fill="#BA1C01"/>
<path d="M12.1875 5.6875V11.7812C12.1875 12.4543 11.6418 13 10.9688 13H7.3125V5.6875H12.1875Z" fill="#BA1C01"/>
<path d="M2.03125 13C1.35815 13 0.8125 12.4543 0.8125 11.7812V5.6875H5.6875V13H2.03125Z" fill="#BA1C01"/>
</svg>
