<?xml version="1.0" standalone="no"?>
<!DOCTYPE svg PUBLIC "-//W3C//DTD SVG 20010904//EN"
 "http://www.w3.org/TR/2001/REC-SVG-20010904/DTD/svg10.dtd">
<svg version="1.0" xmlns="http://www.w3.org/2000/svg"
 width="1358.000000pt" height="311.000000pt" viewBox="0 0 1358.000000 311.000000"
 preserveAspectRatio="xMidYMid meet">

<g transform="translate(0.000000,311.000000) scale(0.100000,-0.100000)"
fill="#000000" stroke="none">
<path d="M2082 2844 c-18 -8 -42 -29 -53 -47 -17 -27 -20 -43 -15 -105 2 -41
11 -84 20 -97 l15 -23 -104 -4 c-99 -3 -106 -5 -132 -31 l-28 -27 -3 -845 c-2
-832 -2 -846 18 -885 35 -69 45 -71 355 -68 273 3 273 3 299 27 58 55 57 30
54 931 -3 769 -4 827 -21 851 -26 39 -59 49 -157 49 -50 0 -90 2 -90 4 0 2 9
25 20 51 28 66 26 122 -7 173 -39 60 -100 77 -171 46z m117 -218 c9 -11 7 -13
-11 -11 -30 3 -30 3 -23 15 9 14 20 13 34 -4z m-12 -142 c-9 -9 -28 6 -21 18
4 6 10 6 17 -1 6 -6 8 -13 4 -17z m-67 -49 c27 -14 28 -17 18 -41 -10 -20 -9
-30 3 -47 11 -17 14 -63 14 -209 0 -166 2 -190 18 -208 20 -23 38 -16 58 22
12 23 -5 219 -27 318 -8 36 -12 75 -9 87 3 13 -1 28 -11 38 -15 14 -14 18 8
40 l25 25 26 -108 c17 -70 28 -150 32 -232 3 -69 7 -142 8 -163 2 -38 0 -39
-43 -54 -48 -16 -134 -13 -153 6 -8 8 -6 29 7 81 24 93 17 222 -18 339 -14 47
-26 103 -26 125 l0 40 20 -22 c11 -12 34 -29 50 -37z"/>
<path d="M9437 2803 c-20 -16 -39 -35 -43 -43 -11 -27 -15 -100 -4 -100 5 0
10 8 10 18 0 27 9 32 36 20 20 -9 28 -8 45 8 11 10 34 19 51 20 29 2 30 1 24
-35 -3 -20 -6 -42 -6 -48 0 -7 -11 -13 -24 -13 -30 0 -56 -9 -56 -20 0 -12 52
-19 77 -9 19 7 23 5 23 -10 0 -10 -6 -24 -14 -30 -8 -7 -17 -24 -20 -39 -13
-55 -30 -83 -57 -98 -38 -19 -63 -101 -63 -210 -1 -61 -4 -80 -13 -77 -16 6
-17 -33 -2 -43 6 -3 15 -1 19 6 5 8 9 3 12 -14 5 -23 2 -26 -23 -26 -16 0 -29
-4 -29 -9 0 -5 -3 -16 -6 -25 -5 -13 1 -16 30 -16 39 0 42 -6 24 -45 -13 -28
-26 -33 -24 -9 3 36 -24 23 -45 -21 -17 -37 -19 -49 -9 -55 17 -10 4 -30 -21
-30 -10 0 -19 -3 -19 -6 0 -16 71 -74 89 -74 11 0 23 -4 26 -10 3 -5 2 -10 -3
-10 -15 0 -24 -32 -12 -44 15 -15 12 -36 -5 -36 -10 0 -15 -10 -15 -30 0 -23
4 -30 20 -30 23 0 36 -22 25 -41 -6 -8 -9 -8 -15 1 -14 23 -42 3 -38 -27 2
-24 7 -28 31 -26 27 2 38 -19 17 -32 -5 -3 -10 -1 -10 5 0 7 -6 8 -19 0 -16
-8 -19 -21 -19 -77 0 -38 5 -74 10 -80 7 -9 7 -17 -1 -27 -7 -8 -11 -30 -9
-48 3 -31 6 -33 55 -43 29 -5 58 -16 65 -23 17 -17 25 -15 31 8 6 23 35 27 43
7 5 -15 60 -17 82 -3 8 5 18 4 25 -3 6 -6 14 -11 18 -11 8 0 23 50 20 68 -1 6
3 12 9 12 12 0 14 47 1 54 -5 3 -7 24 -4 46 4 28 2 40 -7 40 -8 0 -10 8 -6 24
9 36 -22 260 -44 319 -25 64 -25 67 0 67 15 0 20 7 20 27 0 25 1 25 18 10 21
-19 63 -22 79 -6 8 8 8 19 0 39 -12 33 -1 54 14 27 16 -28 29 -20 29 18 0 22
-8 43 -20 55 -11 11 -20 28 -20 38 0 10 -4 22 -8 28 -11 12 -29 70 -37 117 -7
41 -20 41 -37 -1 l-12 -27 -3 25 c-7 49 -25 72 -51 65 -22 -5 -24 -3 -18 17 3
13 6 38 6 56 0 24 4 32 18 32 13 0 14 2 4 9 -7 4 -28 30 -46 57 -18 27 -37 48
-42 47 -6 -1 -10 15 -9 35 l0 37 143 -5 c127 -4 145 -7 158 -24 11 -16 14 -78
14 -332 0 -303 1 -312 20 -317 20 -5 20 0 20 320 l0 325 -34 34 -34 34 -116 0
-116 0 13 23 c8 12 20 48 26 79 10 48 10 61 -4 87 -9 18 -26 33 -43 38 -15 3
-40 15 -57 25 -41 25 -66 23 -108 -9z m94 -403 c25 0 29 -4 29 -28 0 -15 4
-32 10 -38 11 -11 -27 -150 -57 -209 l-20 -38 -11 46 c-25 96 -32 186 -21 233
9 33 16 44 26 40 8 -3 28 -6 44 -6z m89 -224 c0 -3 -4 -8 -10 -11 -5 -3 -10
-1 -10 4 0 6 5 11 10 11 6 0 10 -2 10 -4z m113 -68 c-7 -35 -26 -56 -31 -34
-4 18 16 66 28 66 5 0 7 -13 3 -32z m-178 -110 c-8 -60 -10 -63 -47 -72 -22
-5 -26 -3 -22 9 4 8 15 15 25 15 13 0 19 7 19 25 0 23 19 75 28 75 2 0 1 -24
-3 -52z m172 5 c-30 -31 -37 -15 -9 22 10 15 21 20 27 14 6 -6 -1 -19 -18 -36z
m-315 -94 c-5 -11 -11 -20 -15 -20 -4 1 -12 1 -19 1 -6 0 -3 9 7 20 23 26 36
26 27 -1z m158 -39 c0 -5 -4 -10 -9 -10 -6 0 -13 5 -16 10 -3 6 1 10 9 10 9 0
16 -4 16 -10z m-47 -427 c3 -34 3 -64 0 -67 -3 -3 -14 -1 -25 5 -15 8 -17 13
-7 25 7 9 9 29 5 55 -7 41 0 67 14 52 4 -4 10 -36 13 -70z m-73 -122 c0 -6 -4
-13 -10 -16 -5 -3 -10 1 -10 9 0 9 5 16 10 16 6 0 10 -4 10 -9z m80 -16 c0 -8
-4 -15 -10 -15 -5 0 -10 7 -10 15 0 8 5 15 10 15 6 0 10 -7 10 -15z"/>
<path d="M9390 2632 c0 -14 23 -32 42 -32 24 0 23 17 -1 30 -23 12 -41 13 -41
2z"/>
<path d="M10800 2580 c-232 -22 -413 -100 -543 -238 -165 -175 -194 -464 -66
-663 48 -76 140 -154 232 -198 103 -50 197 -76 362 -102 166 -26 258 -46 281
-64 18 -13 18 -14 -9 -24 -93 -36 -212 -21 -296 37 l-53 37 -290 3 -289 3 -29
-30 c-25 -25 -30 -37 -30 -78 1 -124 46 -221 154 -328 65 -65 99 -90 176 -128
325 -160 852 -135 1135 54 181 121 265 270 265 469 -1 249 -112 411 -345 501
-99 39 -253 75 -398 93 -130 17 -192 32 -208 52 -19 23 1 34 63 34 55 0 68 -4
116 -37 l54 -38 297 -3 296 -2 30 24 c28 23 30 28 29 94 0 58 -6 82 -32 134
-78 160 -264 301 -475 362 -72 21 -278 49 -327 45 -8 -1 -53 -5 -100 -9z m224
-40 c126 -12 212 -34 304 -76 200 -91 351 -257 369 -402 5 -42 2 -53 -16 -71
-20 -20 -29 -21 -286 -21 -284 0 -292 1 -368 53 -73 50 -188 45 -224 -9 -15
-24 -15 -27 4 -52 27 -37 87 -55 283 -85 282 -44 425 -96 531 -194 95 -89 139
-199 139 -353 -1 -151 -39 -241 -151 -352 -133 -133 -321 -207 -574 -228 -256
-20 -489 21 -661 117 -57 32 -156 123 -194 178 -60 87 -88 228 -53 267 15 17
37 18 282 18 265 0 266 0 306 -25 109 -67 190 -85 304 -66 77 12 107 36 97 75
-12 48 -87 72 -351 111 -392 59 -592 226 -611 510 -23 320 242 569 645 605
122 10 116 10 225 0z"/>
<path d="M183 2560 c-13 -5 -32 -24 -43 -42 -20 -32 -20 -50 -20 -862 l0 -829
23 -45 c34 -69 48 -72 326 -72 132 0 251 4 265 10 14 5 38 28 53 51 28 42 28
43 33 258 l5 216 330 5 c182 3 331 7 333 8 1 1 16 23 32 49 l30 47 0 215 c0
198 -2 219 -20 249 -11 18 -32 37 -46 42 -14 6 -161 10 -345 10 l-319 0 0 34
c0 26 5 35 23 40 12 3 168 6 347 6 363 0 353 -2 390 70 18 36 20 59 20 252 0
195 -2 216 -20 246 -11 18 -32 37 -46 42 -32 13 -1320 12 -1351 0z"/>
<path d="M2814 2560 c-12 -4 -31 -21 -43 -36 l-21 -27 0 -843 c0 -841 0 -843
21 -879 40 -68 10 -65 713 -65 381 0 645 4 660 10 14 5 38 28 53 51 28 42 28
44 31 228 4 228 -1 265 -38 303 l-28 28 -346 0 -345 0 -3 583 c-3 537 -4 584
-21 608 -9 14 -29 31 -43 37 -30 14 -557 16 -590 2z"/>
<path d="M4435 2561 c-11 -5 -29 -19 -40 -31 -20 -22 -20 -38 -23 -867 l-2
-845 22 -40 c37 -66 47 -68 313 -68 265 0 276 2 313 68 21 38 22 49 22 296 0
166 4 256 10 256 13 0 28 -19 82 -100 58 -87 85 -100 211 -100 133 0 155 10
213 102 26 40 54 79 63 86 14 11 17 10 23 -10 3 -13 6 -131 7 -264 l1 -241 30
-41 c21 -29 39 -43 62 -47 18 -3 137 -5 264 -3 259 3 255 2 295 80 18 36 19
72 19 858 0 901 2 873 -60 905 -26 14 -65 16 -269 13 -237 -3 -238 -3 -270
-28 -19 -15 -99 -136 -205 -312 l-173 -287 -164 271 c-90 150 -175 285 -189
301 -43 53 -68 57 -312 56 -123 0 -232 -4 -243 -8z"/>
<path d="M6948 2529 c-30 -29 -31 -33 -25 -97 7 -88 214 -1523 228 -1584 12
-51 58 -102 102 -113 13 -4 125 -5 249 -3 l227 3 30 29 c22 21 54 88 118 247
48 120 90 215 94 211 4 -4 44 -99 89 -212 99 -247 94 -236 133 -260 29 -18 52
-20 262 -20 228 0 231 0 266 24 20 14 43 40 51 58 9 18 67 392 133 848 113
791 116 816 100 846 -9 18 -28 37 -41 43 -36 16 -541 15 -573 -2 -54 -27 -59
-47 -93 -329 -18 -148 -35 -265 -39 -260 -4 4 -17 39 -29 77 -15 45 -35 82
-56 103 l-32 32 -166 0 c-223 0 -228 -3 -281 -160 l-22 -65 -6 35 c-3 19 -18
136 -33 260 -14 124 -32 240 -40 258 -23 57 -49 62 -349 62 l-267 0 -30 -31z
m595 -31 c21 -21 26 -53 60 -343 21 -176 41 -338 44 -359 6 -38 10 -30 63 129
39 116 64 174 80 187 19 16 42 18 180 18 l158 0 26 -31 c17 -19 43 -85 73
-180 26 -82 49 -149 52 -149 4 0 25 159 48 353 41 342 43 353 68 375 26 22 31
22 286 22 250 0 260 -1 280 -21 16 -16 19 -29 15 -52 -3 -18 -55 -381 -116
-807 -61 -426 -117 -789 -125 -807 -27 -60 -50 -64 -295 -61 -195 3 -220 5
-238 21 -12 11 -67 134 -123 275 -56 142 -105 260 -109 265 -3 4 -55 -115
-114 -263 -94 -236 -112 -272 -137 -285 -22 -12 -73 -15 -239 -15 -230 0 -255
5 -278 56 -12 24 -242 1584 -242 1635 0 13 7 31 17 41 15 17 37 18 280 18 260
0 264 0 286 -22z"/>
<path d="M9238 2543 c-14 -9 -31 -27 -37 -40 -7 -15 -11 -114 -11 -263 0 -233
1 -240 20 -240 11 0 20 -5 20 -11 0 -6 -9 -13 -20 -16 -20 -5 -20 -14 -20
-593 l0 -588 30 -31 31 -30 279 -3 c153 -2 276 0 273 4 -2 5 -13 8 -24 8 -11
0 -34 7 -52 17 -25 12 -59 16 -152 16 -84 0 -103 1 -63 6 46 5 56 9 49 20 -7
11 -24 13 -78 7 -37 -3 -79 -9 -92 -13 -16 -4 -22 -3 -18 4 5 7 0 9 -13 6 -11
-3 -17 -9 -14 -14 5 -8 -41 -14 -76 -9 -39 4 -40 15 -40 572 0 528 0 538 20
538 10 0 35 14 55 31 l35 31 -1 117 c-1 69 -4 106 -9 91 l-7 -25 -5 25 c-3 14
-4 9 -2 -10 2 -20 0 -49 -5 -65 -7 -25 -10 -27 -16 -12 -8 19 -30 24 -22 4 2
-7 -6 -18 -19 -24 l-24 -11 0 219 c0 264 -2 259 111 259 61 0 70 2 65 16 -3 9
-6 18 -6 20 0 2 -30 4 -67 4 -46 0 -77 -6 -95 -17z"/>
<path d="M11994 2526 l-34 -34 0 -841 c0 -914 -2 -883 55 -909 19 -9 201 -12
709 -12 674 0 684 0 709 21 42 32 49 76 45 284 -3 209 -7 223 -64 250 -27 12
-94 15 -403 15 l-371 0 0 35 0 35 335 0 c454 0 425 -19 425 270 0 175 -2 198
-20 227 -13 21 -31 35 -57 42 -23 7 -165 11 -360 11 l-323 0 0 35 0 35 365 0
c407 0 414 1 441 65 20 49 20 391 0 440 -29 67 -1 65 -747 65 l-671 0 -34 -34z
m1397 -25 c24 -19 24 -21 24 -226 0 -205 0 -207 -24 -226 -22 -18 -44 -19
-407 -19 l-384 0 0 -75 0 -74 359 -3 c337 -3 360 -4 380 -22 20 -18 21 -29 21
-206 0 -170 -2 -190 -19 -211 l-19 -24 -361 -3 -361 -3 0 -74 0 -75 394 0
c373 0 395 -1 417 -19 24 -19 24 -21 24 -224 0 -187 -2 -207 -19 -226 -19 -21
-21 -21 -698 -21 -665 0 -678 0 -698 20 -20 20 -20 33 -20 855 0 822 0 835 20
855 20 20 33 20 684 20 639 0 665 -1 687 -19z"/>
<path d="M9463 2543 c-33 -6 -28 -63 6 -63 14 0 14 2 1 10 -12 8 -11 10 7 10
12 0 25 5 28 10 3 6 -1 10 -11 10 -13 0 -14 3 -4 15 7 8 9 14 4 14 -5 -1 -19
-4 -31 -6z"/>
<path d="M9660 2285 c0 -8 2 -15 4 -15 2 0 6 7 10 15 3 8 1 15 -4 15 -6 0 -10
-7 -10 -15z"/>
<path d="M9700 2273 c0 -12 -3 -29 -7 -38 -5 -15 -3 -16 15 -6 26 14 27 21 7
47 -14 19 -14 19 -15 -3z"/>
<path d="M9130 1950 c0 -17 2 -19 14 -8 14 13 12 28 -5 28 -5 0 -9 -9 -9 -20z"/>
<path d="M9870 1728 c0 -7 0 -214 0 -461 0 -298 -3 -454 -10 -467 -8 -14 -21
-20 -47 -20 -54 0 -31 -13 24 -14 32 -1 52 4 60 14 9 11 12 125 13 458 l0 443
23 -5 22 -6 -23 12 c-13 6 -21 17 -18 25 3 7 -1 13 -9 13 -8 0 -15 5 -15 10 0
15 -20 12 -20 -2z"/>
<path d="M9484 894 c3 -9 6 -19 6 -24 0 -4 6 -10 13 -13 10 -4 12 3 9 24 -3
17 -10 29 -19 29 -10 0 -13 -6 -9 -16z"/>
<path d="M9690 885 c0 -16 6 -25 15 -25 9 0 15 9 15 25 0 16 -6 25 -15 25 -9
0 -15 -9 -15 -25z"/>
<path d="M9666 796 c3 -8 12 -12 21 -9 12 5 12 7 1 14 -20 13 -28 11 -22 -5z"/>
<path d="M9870 740 c-9 -6 -10 -10 -3 -10 6 0 15 5 18 10 8 12 4 12 -15 0z"/>
</g>
</svg>
