<svg width="109" height="103" viewBox="0 0 109 103" fill="none" xmlns="http://www.w3.org/2000/svg">
<rect x="36.9177" y="60.1163" width="7.16454" height="4.32908" fill="url(#paint0_linear_13_39)" stroke="url(#paint1_linear_13_39)" stroke-width="4.32908"/>
<ellipse cx="40.4606" cy="79.4383" rx="16.4138" ry="16.5617" fill="url(#paint2_linear_13_39)"/>
<path d="M53.0681 79.4384C53.0681 86.4707 47.4193 92.1639 40.4606 92.1639C33.502 92.1639 27.8532 86.4707 27.8532 79.4384C27.8532 72.406 33.502 66.7128 40.4606 66.7128C47.4193 66.7128 53.0681 72.406 53.0681 79.4384Z" fill="url(#paint3_linear_13_39)" stroke="url(#paint4_linear_13_39)"/>
<g filter="url(#filter0_ii_13_39)">
<ellipse cx="40.4606" cy="79.4384" rx="11.6117" ry="11.7163" fill="url(#paint5_linear_13_39)"/>
</g>
<g filter="url(#filter1_di_13_39)">
<rect x="22" y="40" width="37" height="2.93901" rx="1.4695" fill="#4A5B74"/>
</g>
<rect x="24.7553" y="41.4298" width="31.6468" height="0.31773" rx="0.158865" fill="#242D3A"/>
<path fill-rule="evenodd" clip-rule="evenodd" d="M56.4021 41.7496C53.8838 41.8808 51.8447 48.2927 51.7602 56.2837H29.2398C29.1589 48.6285 27.2842 42.4225 24.9128 41.7991V41.7476H56.4021V41.7496Z" fill="url(#paint6_linear_13_39)"/>
<rect x="33.4149" y="41.7476" width="1.57447" height="14.5362" fill="#E3EBF8"/>
<rect x="46.3255" y="41.7476" width="1.57447" height="14.5362" fill="#E3EBF8"/>
<path d="M29.1638 54.6157L40.5 56.8398V61.288L29.1638 59.0639V54.6157Z" fill="url(#paint7_linear_13_39)"/>
<g filter="url(#filter2_d_13_39)">
<path d="M29.1638 53.7419L40.5 55.966V60.4142L29.1638 58.1901V53.7419Z" fill="#354358"/>
</g>
<path d="M51.8362 54.6157L40.5 56.8398V61.288L51.8362 59.0639V54.6157Z" fill="url(#paint8_linear_13_39)"/>
<g filter="url(#filter3_d_13_39)">
<path d="M51.8362 53.7419L40.5 55.966V60.4142L51.8362 58.1901V53.7419Z" fill="#354358"/>
</g>
<path d="M29.1638 54.0596L40.5 56.2837V60.732L29.1638 58.5079V54.0596Z" fill="url(#paint9_linear_13_39)"/>
<path d="M51.8362 54.0596L40.5 56.2837V60.732L51.8362 58.5079V54.0596Z" fill="url(#paint10_linear_13_39)"/>
<g clip-path="url(#clip0_13_39)">
<path d="M40.5 86.9094L32.6276 78.469L35.6344 74.1119H45.3655L48.3723 78.469L40.5 86.9094Z" fill="#1A1F29"/>
<path d="M37.2909 78.469L40.5 86.9094L32.6276 78.469H37.2909Z" fill="#1A1F29"/>
<path d="M32.6276 78.469L35.6344 74.1119H45.3655L48.3723 78.469H32.6276Z" fill="#1A1F29"/>
<path d="M32.6276 78.469L35.6344 74.1119L37.2909 78.469H32.6276Z" fill="#1A1F29"/>
<path d="M35.6344 74.1119L40.5 86.9094L45.3655 74.1119H35.6344Z" fill="#1A1F29"/>
<path d="M37.2909 78.469H43.7091L40.5 74.1119L37.2909 78.469Z" fill="#1A1F29"/>
<path d="M37.2909 78.469L35.6347 74.1119H40.5L37.2909 78.469Z" fill="#1A1F29"/>
<path d="M40.5 86.9094L37.2909 78.469H43.7091L40.5 86.9094Z" fill="#1A1F29"/>
</g>
<g clip-path="url(#clip1_13_39)">
<path d="M36.8371 78.0255L40.5 87.0747L31.5143 78.0255H36.8371Z" fill="url(#paint11_linear_13_39)"/>
<path d="M44.1734 78.0719L46.0949 73.3585L40.5 73.3541L44.1734 78.0719Z" fill="url(#paint12_linear_13_39)"/>
<path d="M44.1064 78.0255L40.5 87.0702L49.4857 78.0255H44.1064Z" fill="url(#paint13_linear_13_39)"/>
<path d="M36.4662 77.7755H32.0082L34.8826 73.863L36.4662 77.7755Z" fill="url(#paint14_linear_13_39)" stroke="url(#paint15_linear_13_39)" stroke-width="0.5"/>
<path d="M49.4962 78.0254L46.0949 73.3585L44.1734 78.0254H49.4962Z" fill="url(#paint16_linear_13_39)"/>
<path d="M37.3508 77.7755L40.5003 73.7588L43.6608 77.7755H37.3508Z" fill="url(#paint17_linear_13_39)" stroke="url(#paint18_linear_13_39)" stroke-width="0.5"/>
<path d="M36.8371 78.0255L34.9466 73.3541H40.5L36.8371 78.0255Z" fill="url(#paint19_linear_13_39)"/>
<path d="M43.792 78.2755L40.5 86.4084L37.208 78.2755H43.792Z" fill="url(#paint20_linear_13_39)" stroke="url(#paint21_linear_13_39)" stroke-width="0.5"/>
</g>
<defs>
<filter id="filter0_ii_13_39" x="28.8489" y="63.722" width="23.2234" height="31.4326" filterUnits="userSpaceOnUse" color-interpolation-filters="sRGB">
<feFlood flood-opacity="0" result="BackgroundImageFix"/>
<feBlend mode="normal" in="SourceGraphic" in2="BackgroundImageFix" result="shape"/>
<feColorMatrix in="SourceAlpha" type="matrix" values="0 0 0 0 0 0 0 0 0 0 0 0 0 0 0 0 0 0 127 0" result="hardAlpha"/>
<feOffset dy="-4"/>
<feGaussianBlur stdDeviation="5"/>
<feComposite in2="hardAlpha" operator="arithmetic" k2="-1" k3="1"/>
<feColorMatrix type="matrix" values="0 0 0 0 0 0 0 0 0 0 0 0 0 0 0 0 0 0 0.5 0"/>
<feBlend mode="normal" in2="shape" result="effect1_innerShadow_13_39"/>
<feColorMatrix in="SourceAlpha" type="matrix" values="0 0 0 0 0 0 0 0 0 0 0 0 0 0 0 0 0 0 127 0" result="hardAlpha"/>
<feOffset dy="4"/>
<feGaussianBlur stdDeviation="25"/>
<feComposite in2="hardAlpha" operator="arithmetic" k2="-1" k3="1"/>
<feColorMatrix type="matrix" values="0 0 0 0 0 0 0 0 0 0 0 0 0 0 0 0 0 0 0.5 0"/>
<feBlend mode="normal" in2="effect1_innerShadow_13_39" result="effect2_innerShadow_13_39"/>
</filter>
<filter id="filter1_di_13_39" x="-28" y="0" width="137" height="102.939" filterUnits="userSpaceOnUse" color-interpolation-filters="sRGB">
<feFlood flood-opacity="0" result="BackgroundImageFix"/>
<feColorMatrix in="SourceAlpha" type="matrix" values="0 0 0 0 0 0 0 0 0 0 0 0 0 0 0 0 0 0 127 0" result="hardAlpha"/>
<feOffset dy="10"/>
<feGaussianBlur stdDeviation="25"/>
<feComposite in2="hardAlpha" operator="out"/>
<feColorMatrix type="matrix" values="0 0 0 0 0 0 0 0 0 0 0 0 0 0 0 0 0 0 0.3 0"/>
<feBlend mode="normal" in2="BackgroundImageFix" result="effect1_dropShadow_13_39"/>
<feBlend mode="normal" in="SourceGraphic" in2="effect1_dropShadow_13_39" result="shape"/>
<feColorMatrix in="SourceAlpha" type="matrix" values="0 0 0 0 0 0 0 0 0 0 0 0 0 0 0 0 0 0 127 0" result="hardAlpha"/>
<feOffset dy="4"/>
<feComposite in2="hardAlpha" operator="arithmetic" k2="-1" k3="1"/>
<feColorMatrix type="matrix" values="0 0 0 0 0.44191 0 0 0 0 0.504879 0 0 0 0 0.595833 0 0 0 1 0"/>
<feBlend mode="normal" in2="shape" result="effect2_innerShadow_13_39"/>
</filter>
<filter id="filter2_d_13_39" x="24.1638" y="46.7419" width="21.3362" height="16.6723" filterUnits="userSpaceOnUse" color-interpolation-filters="sRGB">
<feFlood flood-opacity="0" result="BackgroundImageFix"/>
<feColorMatrix in="SourceAlpha" type="matrix" values="0 0 0 0 0 0 0 0 0 0 0 0 0 0 0 0 0 0 127 0" result="hardAlpha"/>
<feOffset dy="-2"/>
<feGaussianBlur stdDeviation="2.5"/>
<feComposite in2="hardAlpha" operator="out"/>
<feColorMatrix type="matrix" values="0 0 0 0 0.352344 0 0 0 0 0.416968 0 0 0 0 0.5125 0 0 0 1 0"/>
<feBlend mode="normal" in2="BackgroundImageFix" result="effect1_dropShadow_13_39"/>
<feBlend mode="normal" in="SourceGraphic" in2="effect1_dropShadow_13_39" result="shape"/>
</filter>
<filter id="filter3_d_13_39" x="35.5" y="46.7419" width="21.3362" height="16.6723" filterUnits="userSpaceOnUse" color-interpolation-filters="sRGB">
<feFlood flood-opacity="0" result="BackgroundImageFix"/>
<feColorMatrix in="SourceAlpha" type="matrix" values="0 0 0 0 0 0 0 0 0 0 0 0 0 0 0 0 0 0 127 0" result="hardAlpha"/>
<feOffset dy="-2"/>
<feGaussianBlur stdDeviation="2.5"/>
<feComposite in2="hardAlpha" operator="out"/>
<feColorMatrix type="matrix" values="0 0 0 0 0.352344 0 0 0 0 0.416968 0 0 0 0 0.5125 0 0 0 1 0"/>
<feBlend mode="normal" in2="BackgroundImageFix" result="effect1_dropShadow_13_39"/>
<feBlend mode="normal" in="SourceGraphic" in2="effect1_dropShadow_13_39" result="shape"/>
</filter>
<linearGradient id="paint0_linear_13_39" x1="40.5" y1="61.129" x2="40.5" y2="66.6099" gradientUnits="userSpaceOnUse">
<stop stop-color="#4A5B74"/>
<stop offset="1" stop-color="#2B3646"/>
</linearGradient>
<linearGradient id="paint1_linear_13_39" x1="40.5" y1="57.9517" x2="40.5" y2="66.6099" gradientUnits="userSpaceOnUse">
<stop stop-color="#87909D"/>
<stop offset="0.578231" stop-color="#D4DBE4"/>
<stop offset="1" stop-color="#87909D"/>
</linearGradient>
<linearGradient id="paint2_linear_13_39" x1="31.683" y1="65.1404" x2="40.6072" y2="95.9575" gradientUnits="userSpaceOnUse">
<stop stop-color="#8998AF"/>
<stop offset="1" stop-color="#293546"/>
</linearGradient>
<linearGradient id="paint3_linear_13_39" x1="33.4511" y1="68.0206" x2="40.5777" y2="92.63" gradientUnits="userSpaceOnUse">
<stop stop-color="#313C4D"/>
<stop offset="1" stop-color="#43546D"/>
</linearGradient>
<linearGradient id="paint4_linear_13_39" x1="40.4606" y1="66.2128" x2="40.4606" y2="92.6639" gradientUnits="userSpaceOnUse">
<stop stop-color="#9FADC1"/>
<stop offset="1" stop-color="#4D596A"/>
</linearGradient>
<linearGradient id="paint5_linear_13_39" x1="34.251" y1="69.3236" x2="40.5643" y2="91.1246" gradientUnits="userSpaceOnUse">
<stop stop-color="#313C4D"/>
<stop offset="1" stop-color="#43546D"/>
</linearGradient>
<linearGradient id="paint6_linear_13_39" x1="40.6574" y1="41.7476" x2="40.6574" y2="56.2837" gradientUnits="userSpaceOnUse">
<stop stop-color="#48576F"/>
<stop offset="0.489583" stop-color="#8AA2C6"/>
<stop offset="1" stop-color="#39485E"/>
</linearGradient>
<linearGradient id="paint7_linear_13_39" x1="29.1638" y1="56.6809" x2="40.5098" y2="59.2188" gradientUnits="userSpaceOnUse">
<stop stop-color="#424E61"/>
<stop offset="1" stop-color="#B7BDC5"/>
</linearGradient>
<linearGradient id="paint8_linear_13_39" x1="51.8362" y1="56.6809" x2="40.4902" y2="59.2188" gradientUnits="userSpaceOnUse">
<stop stop-color="#3C495C"/>
<stop offset="1" stop-color="#88909D"/>
</linearGradient>
<linearGradient id="paint9_linear_13_39" x1="34.8319" y1="54.0596" x2="35.553" y2="59.658" gradientUnits="userSpaceOnUse">
<stop stop-color="#8BA0C0"/>
<stop offset="1" stop-color="#303B4D"/>
</linearGradient>
<linearGradient id="paint10_linear_13_39" x1="46.1681" y1="54.0596" x2="48.8429" y2="59.2032" gradientUnits="userSpaceOnUse">
<stop stop-color="#8BA0C0"/>
<stop offset="1" stop-color="#424E61"/>
</linearGradient>
<linearGradient id="paint11_linear_13_39" x1="36.8266" y1="78.0184" x2="34.5541" y2="81.0296" gradientUnits="userSpaceOnUse">
<stop stop-color="#2A3345"/>
<stop offset="1" stop-color="#4B5C7B"/>
</linearGradient>
<linearGradient id="paint12_linear_13_39" x1="43.3332" y1="73.3541" x2="44.1924" y2="78.1957" gradientUnits="userSpaceOnUse">
<stop stop-color="#8998B0"/>
<stop offset="1" stop-color="#333C4B"/>
</linearGradient>
<linearGradient id="paint13_linear_13_39" x1="44.9646" y1="82.7317" x2="43.0169" y2="81.0763" gradientUnits="userSpaceOnUse">
<stop stop-color="#2A3345"/>
<stop offset="1" stop-color="#4B5C7B"/>
</linearGradient>
<linearGradient id="paint14_linear_13_39" x1="34.1757" y1="73.3541" x2="34.1757" y2="78.0255" gradientUnits="userSpaceOnUse">
<stop stop-color="#42526B"/>
<stop offset="1" stop-color="#8390A4"/>
</linearGradient>
<linearGradient id="paint15_linear_13_39" x1="34.1757" y1="73.3541" x2="34.1757" y2="78.0255" gradientUnits="userSpaceOnUse">
<stop stop-color="#C2D0E2"/>
<stop offset="1" stop-color="#89A2C5" stop-opacity="0"/>
</linearGradient>
<linearGradient id="paint16_linear_13_39" x1="46.8348" y1="73.3541" x2="46.8348" y2="78.0254" gradientUnits="userSpaceOnUse">
<stop stop-color="#42526B"/>
<stop offset="1" stop-color="#8390A4"/>
</linearGradient>
<linearGradient id="paint17_linear_13_39" x1="40.5" y1="73.3541" x2="40.5" y2="78.0255" gradientUnits="userSpaceOnUse">
<stop stop-color="#21293A"/>
<stop offset="1" stop-color="#94A1BC"/>
</linearGradient>
<linearGradient id="paint18_linear_13_39" x1="42.6475" y1="76.5186" x2="40.5892" y2="78.1312" gradientUnits="userSpaceOnUse">
<stop stop-color="#AFBACB"/>
<stop offset="1" stop-color="#C0CDE0" stop-opacity="0"/>
</linearGradient>
<linearGradient id="paint19_linear_13_39" x1="37.7233" y1="73.3541" x2="36.8641" y2="78.1957" gradientUnits="userSpaceOnUse">
<stop stop-color="#8998B0"/>
<stop offset="1" stop-color="#333C4B"/>
</linearGradient>
<linearGradient id="paint20_linear_13_39" x1="40.5" y1="78.0255" x2="40.5" y2="87.0747" gradientUnits="userSpaceOnUse">
<stop stop-color="#273041"/>
<stop offset="1" stop-color="#909DB8"/>
</linearGradient>
<linearGradient id="paint21_linear_13_39" x1="38.8046" y1="82.7317" x2="42.0728" y2="78.1709" gradientUnits="userSpaceOnUse">
<stop stop-color="#677589"/>
<stop offset="1" stop-color="#B0BBCC" stop-opacity="0"/>
</linearGradient>
<clipPath id="clip0_13_39">
<rect width="15.7447" height="15.8865" fill="white" transform="translate(32.6276 72.5674)"/>
</clipPath>
<clipPath id="clip1_13_39">
<rect width="17.9714" height="17.0325" fill="white" transform="translate(31.5143 71.6981)"/>
</clipPath>
</defs>
</svg>
