<svg width="13" height="16" viewBox="0 0 13 16" fill="none" xmlns="http://www.w3.org/2000/svg">
<path d="M1.44444 4.33333C1.44444 3.13671 3.86957 2.16666 6.86111 2.16666C9.85265 2.16666 12.2778 3.13671 12.2778 4.33333V5.41666C12.2778 6.61328 9.85265 7.58333 6.86111 7.58333C3.86957 7.58333 1.44444 6.61328 1.44444 5.41666V4.33333Z" fill="#F1CA1D"/>
<path d="M1.44444 7.31333V9.75C1.44444 10.9466 3.86957 11.9167 6.86111 11.9167C9.85265 11.9167 12.2778 10.9466 12.2778 9.75V7.31333C11.9286 7.57238 11.5212 7.78355 11.0936 7.95458C9.9563 8.4095 8.45942 8.66666 6.86111 8.66666C5.2628 8.66666 3.76591 8.4095 2.62861 7.95458C2.20104 7.78355 1.79357 7.57238 1.44444 7.31333Z" fill="#F1CA1D"/>
<path d="M12.2778 11.6467C11.9286 11.9057 11.5212 12.1169 11.0936 12.2879C9.9563 12.7428 8.45942 13 6.86111 13C5.2628 13 3.76591 12.7428 2.62861 12.2879C2.20104 12.1169 1.79357 11.9057 1.44444 11.6467V13C1.44444 14.1966 3.86957 15.1667 6.86111 15.1667C9.85265 15.1667 12.2778 14.1966 12.2778 13V11.6467Z" fill="#F1CA1D"/>
</svg>
